<svg xmlns="http://www.w3.org/2000/svg" viewBox="0 0 687.17 116.11"><defs><style>.cls-1{font-size:104.13px;font-family:Montserrat-SemiBoldItalic, Montserrat;font-weight:600;font-style:italic;}.cls-1,.cls-5{fill:#1f8c04;}.cls-2{letter-spacing:-0.01em;}.cls-3{letter-spacing:0em;}.cls-4{letter-spacing:-0.02em;}</style></defs><g id="Layer_2" data-name="Layer 2"><g id="Layer_1-2" data-name="Layer 1"><text class="cls-1" transform="translate(0 88.51)"><tspan class="cls-2">F</tspan><tspan class="cls-3" x="64.77" y="0" xml:space="preserve">eed     as</tspan><tspan class="cls-4" x="533.99" y="0">t</tspan><tspan x="576.27" y="0">er</tspan></text><path class="cls-5" d="M300.59,5.62l-7.14,82.32c-.38,4.4,9.34,6.52,12.61,2.76L350,40.23c1.16-1.34.92-3-.62-4.36L312.58,4C308.82.78,300.92,1.83,300.59,5.62Z"/><path class="cls-5" d="M404.83,14.89,390.38,96.46c-.77,4.35-10.78,4.43-13,.1L347.76,38.48c-.78-1.54-.11-3.13,1.74-4.11l44.08-23.48C398.08,8.5,405.5,11.14,404.83,14.89Z"/></g></g></svg>