<svg xmlns="http://www.w3.org/2000/svg" viewBox="0 0 652.57 110.26"><defs><style>.cls-1{font-size:98.89px;font-family:Montserrat-SemiBoldItalic, Montserrat;font-weight:600;font-style:italic;}.cls-2{letter-spacing:-0.02em;}.cls-3{letter-spacing:-0.02em;}.cls-4{fill:#1f8c04;}</style></defs><g id="Layer_2" data-name="Layer 2"><g id="Layer_1-2" data-name="Layer 1"><text class="cls-1" transform="translate(0 84.06)"><tspan class="cls-2">F</tspan><tspan x="61.51" y="0" xml:space="preserve">eed     as</tspan><tspan class="cls-3" x="507.1" y="0">t</tspan><tspan x="547.25" y="0">er</tspan></text><path class="cls-4" d="M285.45,5.34l-6.78,78.18c-.36,4.17,8.87,6.19,12,2.62L332.37,38.2c1.1-1.26.87-2.87-.59-4.13L296.84,3.83C293.27.74,285.76,1.74,285.45,5.34Z"/><path class="cls-4" d="M384.45,14.14,370.72,91.6c-.73,4.13-10.24,4.21-12.34.1L330.25,36.54c-.74-1.45-.1-3,1.65-3.9l41.86-22.3C378,8.07,385.08,10.58,384.45,14.14Z"/></g></g></svg>