<svg xmlns="http://www.w3.org/2000/svg" viewBox="0 0 654.16 110.53"><defs><style>.cls-1{font-size:99.13px;font-family:Montserrat-SemiBoldItalic, Montserrat;font-weight:600;font-style:italic;}.cls-2{letter-spacing:-0.01em;}.cls-3{letter-spacing:-0.02em;}</style></defs><g id="Layer_2" data-name="Layer 2"><g id="Layer_1-2" data-name="Layer 1"><text class="cls-1" transform="translate(0 84.26)"><tspan class="cls-2">F</tspan><tspan x="61.66" y="0" xml:space="preserve">eed     as</tspan><tspan class="cls-3" x="508.34" y="0">t</tspan><tspan x="548.59" y="0">er</tspan></text><path d="M286.15,5.36l-6.8,78.36c-.36,4.18,8.89,6.21,12,2.63l41.82-48c1.1-1.27.87-2.88-.59-4.15l-35-30.32C294,.74,286.46,1.75,286.15,5.36Z"/><path d="M385.39,14.18,371.63,91.82c-.73,4.15-10.27,4.23-12.37.11l-28.2-55.3c-.75-1.46-.1-3,1.65-3.91l42-22.35C379,8.09,386,10.6,385.39,14.18Z"/></g></g></svg>